<svg width="608" height="441" viewBox="0 0 608 441" fill="none" xmlns="http://www.w3.org/2000/svg">
<g opacity="0.2">
<path d="M188.971 413.896C175.962 419.345 171.022 432.701 179.524 440.325C197.017 456.015 269.033 448.265 272.421 437.629C275.759 427.152 216.116 402.524 188.971 413.896Z" stroke="white" stroke-width="2" stroke-miterlimit="10"/>
<path d="M221.205 378.999C250.92 368.588 300.813 442.715 280.219 460.216C267.556 470.977 236.903 469.632 211.906 466.096C188.439 462.776 154.908 449.203 146.635 426.66C142.255 414.693 144.884 397.643 154.161 391.672C161.341 387.052 171.034 389.13 173.172 388.362C183.366 392.591 184.862 394.235 192.983 395.227C203.599 396.525 213.033 381.862 221.205 378.999Z" stroke="white" stroke-width="2" stroke-miterlimit="10"/>
<path d="M251.354 342.54C285.865 348.051 323.367 456.324 285.931 481.241C262.089 497.11 220.525 490.103 191.553 481.713C164.941 474.007 120.627 448.29 111.662 411.434C106.45 390.018 112.783 359.892 130.928 351.178C145.391 344.234 164.027 350.205 167.309 350.665C186.704 361.102 188.272 366.411 202.714 369.986C221.835 374.713 236.931 340.225 251.354 342.54Z" stroke="white" stroke-width="2" stroke-miterlimit="10"/>
<path d="M279.318 306.323C317.422 316.483 343.735 470.086 289.458 502.505C254.428 523.425 201.939 510.875 169.016 497.57C139.232 485.536 84.3214 447.669 74.5026 396.446C68.5792 365.555 78.4641 322.419 105.505 310.924C127.234 301.684 154.983 311.167 159.253 313.207C189.107 327.483 189.484 338.827 210.268 344.984C237.876 353.184 259.362 301.013 279.318 306.323Z" stroke="white" stroke-width="2" stroke-miterlimit="10"/>
<path d="M305.6 271.753C347.798 286.41 362.352 485.341 291.303 525.419C245.037 551.284 181.646 533.33 144.799 515.08C111.81 498.744 46.372 448.731 35.6494 383.106C29.0584 342.767 42.4514 286.605 78.3917 272.311C107.398 260.784 144.04 274.304 149.51 277.387C187.992 299.08 188.987 312.937 216.107 321.632C252.208 333.306 280.341 262.983 305.6 271.753Z" stroke="white" stroke-width="2" stroke-miterlimit="10"/>
<path d="M50.0973 234.157C86.3683 220.348 131.882 237.886 138.586 242.03C185.592 271.092 187.331 287.402 220.777 298.718C265.377 313.806 300.325 225.15 330.679 237.621C377.304 256.779 379.921 501.292 291.946 548.771C234.541 579.75 160.126 556.244 119.377 533.024C83.1877 512.406 7.27001 450.245 -4.38153 370.206C-11.6244 320.422 5.25146 251.229 50.0973 234.157Z" stroke="white" stroke-width="2" stroke-miterlimit="10"/>
<path d="M442.584 208.963C428.297 208.843 411.163 184.062 423.977 179.923C431.377 177.53 450.97 181.315 458.667 188.052C469.506 197.531 452.416 209.048 442.584 208.963Z" stroke="white" stroke-width="2" stroke-miterlimit="10"/>
<path d="M403.756 183.394C405.155 180.068 411.702 178.591 417.675 174.541C429.793 166.322 431.531 162.416 440.138 157.459C443.494 155.523 448.01 152.978 452.419 154.143C459.171 155.929 460.855 163.657 469.424 177.269C480.534 194.955 484.741 199.528 481.567 208.9C480.827 211.079 479.869 218.137 474.519 222.442C467.109 228.394 458.424 223.796 447.566 227.736C434.526 232.46 428.061 240.868 422.402 237.152C418.415 234.535 418.267 227.367 415.282 214.887C413.008 205.379 411.579 199.14 408.814 194.051C405.498 187.992 402.201 187.091 403.756 183.394Z" stroke="white" stroke-width="2" stroke-miterlimit="10"/>
<path d="M381.918 190.325C382.16 184.43 391.418 181.577 399.049 173.058C414.696 155.583 407.447 143.096 419.99 130.328C425.312 124.908 433.663 119.659 442.033 120.676C453.912 122.121 457.902 134.394 476.188 159.277C500.096 191.809 510.28 198.18 508.047 215.517C507.591 219.05 507.147 232.617 497.803 240.783C485.342 251.674 470.406 241.766 450.898 249.951C429.1 259.084 420.953 278.609 413.604 274.569C408.499 271.763 410.455 260.463 406.531 238.424C403.753 222.76 402.037 213.605 396.485 206.107C389.479 196.649 381.656 196.728 381.918 190.325Z" stroke="white" stroke-width="2" stroke-miterlimit="10"/>
<path d="M360.057 197.181C359.112 188.732 371.101 184.483 380.4 171.496C399.546 144.758 383.039 123.86 399.82 103.119C407.003 94.2439 419.322 86.3045 431.626 87.1328C448.678 88.2791 454.979 105.002 482.955 141.209C519.737 188.518 535.576 196.848 534.537 222.058C534.333 226.974 534.427 247.016 521.097 259.059C503.582 274.877 482.363 259.641 454.242 272.097C423.665 285.639 413.865 316.272 404.802 311.919C398.583 308.909 402.566 293.49 397.776 261.893C394.47 240.072 392.476 228.044 384.15 218.093C373.418 205.269 361.068 206.283 360.057 197.181Z" stroke="white" stroke-width="2" stroke-miterlimit="10"/>
<path d="M338.146 204.019C336.026 193.024 350.71 187.365 361.701 169.918C384.305 133.903 358.504 104.674 379.603 75.893C388.622 63.5793 404.941 52.9473 421.171 53.5708C443.41 54.4275 451.921 75.6568 489.66 123.126C539.198 185.293 560.756 195.56 560.948 228.583C560.986 234.882 561.61 261.38 544.309 277.315C521.717 298.044 494.257 277.488 457.505 294.227C418.141 312.159 406.688 353.928 395.95 349.254C388.613 346.048 394.627 326.497 388.972 285.346C385.127 257.364 382.869 242.481 371.768 230.063C357.301 213.888 340.426 215.841 338.146 204.019Z" stroke="white" stroke-width="2" stroke-miterlimit="10"/>
<path d="M316.193 210.852C319.742 225.402 341.137 222.505 359.336 242.03C373.214 256.917 375.736 274.651 380.12 308.795C386.629 359.499 378.592 383.185 387.047 386.583C399.477 391.581 412.58 338.673 460.736 316.354C506.101 295.329 539.859 321.248 567.489 295.568C588.789 275.769 587.605 242.815 587.328 235.102C585.861 194.275 558.618 182.062 496.32 105.036C448.816 46.3054 438.103 20.5758 410.665 20.0058C390.511 19.5869 370.184 32.9178 359.336 48.6643C333.932 85.5109 369.076 123.085 342.961 168.337C330.304 190.266 312.89 197.317 316.193 210.852Z" stroke="white" stroke-width="2" stroke-miterlimit="10"/>
<path d="M497.753 445.033C494.024 443.144 486.196 446.784 485.503 452.456C484.719 458.89 493.577 464.212 497.469 462.559C502.073 460.6 502.7 447.534 497.753 445.033Z" stroke="white" stroke-width="2" stroke-miterlimit="10"/>
<path d="M508.258 479.219C514.613 473.276 517.391 462.37 520.568 443.676C523.717 425.139 523.223 411.868 520.455 410.905C518.946 410.385 514.673 414.451 511.007 417.43C504.146 422.991 492.4 422.374 489.389 422.976C478.367 425.18 475.13 429.274 470.523 437.116C468.391 440.738 463.419 448.768 461.23 458.216C457.892 472.523 442.931 476.932 444.754 482.667C446.288 487.454 461.11 488.616 470.721 488.752C484.495 488.947 498.433 488.396 508.258 479.219Z" stroke="white" stroke-width="2" stroke-miterlimit="10"/>
<path d="M519.274 495.195C529.719 484.576 533.829 466.754 540.158 433.425C546.589 399.936 546.548 376.965 543.38 376.108C541.002 375.453 533.303 383.732 526.759 389.65C514.424 400.852 492.343 399.01 487.792 399.728C467.04 402.934 461.926 410.615 453.883 425.133C450.533 431.18 441.341 445.918 437.152 463.324C430.706 489.989 400.144 496.971 402.673 506.857C404.786 515.089 433.128 516.352 450.961 515.675C476.141 514.696 501.623 513.146 519.274 495.195Z" stroke="white" stroke-width="2" stroke-miterlimit="10"/>
<path d="M530.229 511.068C544.775 495.775 550.169 471.024 559.686 423.07C569.35 374.618 569.8 342.001 566.242 341.189C562.983 340.433 551.863 352.904 542.46 361.776C524.684 378.646 492.239 375.544 486.145 376.357C455.669 380.426 448.65 391.804 437.193 413.03C432.621 421.499 419.215 442.949 413.021 468.303C403.476 507.329 357.311 516.878 360.539 530.918C363.234 542.595 405.101 544.009 431.15 542.463C467.73 540.4 504.794 537.811 530.229 511.068Z" stroke="white" stroke-width="2" stroke-miterlimit="10"/>
<path d="M541.15 526.931C559.805 506.964 566.478 475.282 579.181 412.703C592.093 349.295 593.037 307.041 589.076 306.257C584.932 305.429 570.386 322.041 558.13 333.873C534.877 356.375 492.107 352.044 484.47 352.973C444.269 357.852 435.291 372.956 420.472 400.912C414.658 411.796 397.058 439.963 388.864 473.27C376.212 524.654 314.443 536.772 318.379 554.965C321.651 570.082 377.043 571.591 411.311 569.241C459.274 566.007 507.943 562.476 541.15 526.931Z" stroke="white" stroke-width="2" stroke-miterlimit="10"/>
<path d="M482.779 329.581C432.857 335.249 422.002 354.145 403.738 388.787C396.715 402.105 374.886 436.971 364.689 478.227C348.944 541.975 271.562 556.66 276.2 579.004C280.055 597.585 348.969 599.159 391.456 596.01C450.822 591.601 511.086 587.135 552.059 542.787C574.823 518.144 582.771 479.54 598.665 402.329C614.797 323.962 616.237 272.081 611.891 271.319C606.852 270.437 588.903 291.159 573.787 305.961C545.055 334.09 491.962 328.538 482.779 329.581Z" stroke="white" stroke-width="2" stroke-miterlimit="10"/>
<path d="M76.8644 178.1C82.5327 199.83 123.219 189.623 171.651 238.566C189.006 256.105 200.642 274.449 223.611 277.302C225.929 277.589 248.939 280.105 265.179 265.335C285.61 246.754 273.139 220.977 296.984 185.028C305.767 171.786 307.228 175.631 313.674 165.188C341.184 120.61 299.226 75.3545 323.436 30.0835C334.581 9.24466 351.148 4.46089 349.574 1.73991C342.778 -9.93449 61.5473 119.545 76.8644 178.1Z" stroke="white" stroke-width="2" stroke-miterlimit="10"/>
<path d="M229.909 247.595C231.301 247.406 246.473 248.54 256.881 238.097C270.041 224.911 260.66 206.755 275.737 182.244C281.286 173.219 282.058 175.666 286.007 168.526C302.854 138.06 272.617 107.411 287.424 77.5873C294.276 63.7808 305.093 60.6158 303.484 59.2679C296.206 53.1205 110.578 143.936 125.158 183.454C130.625 198.274 160.469 193.015 194.617 224.936C207.034 236.535 215.442 249.557 229.909 247.595Z" stroke="white" stroke-width="2" stroke-miterlimit="10"/>
<path d="M236.207 217.885C236.604 216.887 244.023 216.909 248.583 210.859C254.503 203.011 248.199 192.555 254.491 179.464C256.799 174.658 256.893 175.684 258.342 171.864C264.561 155.434 245.982 139.487 251.414 125.088C253.955 118.311 258.679 117.155 257.419 116.793C248.211 118.1 159.798 168.416 173.437 188.807C178.762 196.775 197.823 196.394 217.568 211.306C225.072 216.975 229.985 221.125 236.207 217.885Z" stroke="white" stroke-width="2" stroke-miterlimit="10"/>
<path d="M242.505 188.178C237.618 173.896 218.377 169.039 211.33 174.321C200.938 182.118 209.802 192.272 221.721 194.161C230.63 195.563 248.098 204.522 242.505 188.178Z" stroke="white" stroke-width="2" stroke-miterlimit="10"/>
</g>
</svg>
