<svg width="100" height="24" viewBox="0 0 100 24" fill="none" xmlns="http://www.w3.org/2000/svg">
<path d="M6.31332 0.078329L17.154 0L11.8433 5.29504H0.078329L2.34987 2.25587C3.99512 0.670744 4.91755 0.166711 6.31332 0.078329Z" fill="white"/>
<path d="M11.8433 5.29504L17.154 0V7.86423C17.049 8.87362 16.9337 9.15774 16.8094 9.49347L16.3238 10.5587L15.7285 11.4204L14.3342 12.846L11.53 15.6188V6C11.5854 5.75757 11.6362 5.612 11.8433 5.29504Z" fill="white"/>
<path d="M7.66057 9.83812L0.0313316 9.75979V24L7.32055 19.4394C7.50759 19.1539 7.61891 19.0031 7.66057 18.5093V14.5787H3.00373L7.66057 9.83812Z" fill="white"/>
<path d="M7.64491 14.6005H0L0.0313316 24L7.36293 19.4569C7.53672 19.1362 7.61723 18.9295 7.66057 18.5013L7.64491 14.6005Z" fill="white"/>
<mask id="path-2-outside-1_158_20602" maskUnits="userSpaceOnUse" x="22.1543" y="3" width="78" height="18" fill="black">
<rect fill="white" x="22.1543" y="3" width="78" height="18"/>
<path d="M23.1543 4.20822H27.7103C28.7097 4.20822 29.5454 4.30262 30.2173 4.49141C30.8947 4.67465 31.4305 5.07722 31.8248 5.69912C32.219 6.31546 32.4161 7.00677 32.4161 7.77303C32.4161 9.00573 32.0247 9.94135 31.2418 10.5799C30.4588 11.2185 29.3261 11.5377 27.8435 11.5377H24.7701V16.4185H23.1543V4.20822ZM24.7701 10.0885H27.8602C28.8985 10.0885 29.637 9.89415 30.0757 9.50547C30.5199 9.11678 30.742 8.55596 30.742 7.82301C30.742 7.33437 30.6199 6.90127 30.3755 6.52369C30.1312 6.1461 29.8203 5.90734 29.4427 5.80739C29.0707 5.70744 28.5321 5.65747 27.8269 5.65747H24.7701V10.0885Z"/>
<path d="M39.9206 14.0947V12.1374H38.8461C36.5695 12.1374 35.4312 12.7566 35.4312 13.9948C35.4312 14.4446 35.5978 14.7916 35.931 15.0359C36.2641 15.2747 36.7139 15.3941 37.2803 15.3941C37.7967 15.3941 38.2964 15.2775 38.7795 15.0442C39.2626 14.811 39.6429 14.4945 39.9206 14.0947ZM39.9206 15.5107C39.121 16.2547 38.091 16.6268 36.8305 16.6268C35.9532 16.6268 35.2313 16.3908 34.665 15.9188C34.0986 15.4413 33.8154 14.8277 33.8154 14.0781C33.8154 12.0125 35.595 10.9797 39.1543 10.9797H39.9206C39.9206 10.3467 39.8872 9.8886 39.8206 9.60541C39.754 9.31668 39.568 9.07791 39.2626 8.88912C38.9572 8.70033 38.4713 8.60593 37.805 8.60593C36.4057 8.60593 35.6839 9.10567 35.6395 10.1052H34.0736C34.1902 8.28943 35.4618 7.38157 37.8883 7.38157C39.021 7.38157 39.9039 7.60646 40.5369 8.05622C41.1699 8.50599 41.4864 9.38886 41.4864 10.7048V16.4185H39.9206V15.5107Z"/>
<path d="M44.3183 18.5508C45.0956 18.5508 45.7314 17.84 46.2256 16.4185L42.8857 7.58147H44.5848L46.9253 14.4945L49.2657 7.58147H50.9648L47.6249 16.4185C47.3028 17.2625 47.028 17.9122 46.8003 18.3675C46.5782 18.8284 46.2839 19.2143 45.9174 19.5252C45.5565 19.8417 45.1123 20 44.5848 20C44.1906 20 43.8519 19.9611 43.5687 19.8834V18.4341C43.813 18.5119 44.0629 18.5508 44.3183 18.5508Z"/>
<path d="M60.793 5.65747H54.1715V9.43883H59.9102V10.8881H54.1715V16.4185H52.5557V4.20822H60.793V5.65747Z"/>
<path d="M68.3724 14.0947V12.1374H67.298C65.0214 12.1374 63.8831 12.7566 63.8831 13.9948C63.8831 14.4446 64.0497 14.7916 64.3828 15.0359C64.716 15.2747 65.1658 15.3941 65.7321 15.3941C66.2485 15.3941 66.7483 15.2775 67.2313 15.0442C67.7144 14.811 68.0948 14.4945 68.3724 14.0947ZM68.3724 15.5107C67.5728 16.2547 66.5428 16.6268 65.2824 16.6268C64.405 16.6268 63.6832 16.3908 63.1168 15.9188C62.5504 15.4413 62.2673 14.8277 62.2673 14.0781C62.2673 12.0125 64.0469 10.9797 67.6062 10.9797H68.3724C68.3724 10.3467 68.3391 9.8886 68.2725 9.60541C68.2058 9.31668 68.0198 9.07791 67.7144 8.88912C67.409 8.70033 66.9232 8.60593 66.2569 8.60593C64.8576 8.60593 64.1357 9.10567 64.0913 10.1052H62.5255C62.6421 8.28943 63.9136 7.38157 66.3401 7.38157C67.4729 7.38157 68.3558 7.60646 68.9888 8.05622C69.6218 8.50599 69.9383 9.38886 69.9383 10.7048V16.4185H68.3724V15.5107Z"/>
<path d="M76.8597 9.01406C76.6376 8.94742 76.3183 8.91411 75.9018 8.91411C75.1022 8.91411 74.4165 9.33333 73.8446 10.1718V16.4185H72.2704V7.58147H73.8446V8.81416C74.5053 7.8591 75.2716 7.38157 76.1434 7.38157C76.3655 7.38157 76.6042 7.40378 76.8597 7.4482V9.01406Z"/>
<path d="M83.4979 16.6268C81.7432 16.6268 80.319 16.0521 79.2251 14.9027C78.1368 13.7533 77.5926 12.2235 77.5926 10.3134C77.5926 8.39771 78.1312 6.86795 79.2084 5.7241C80.2857 4.5747 81.6988 4 83.4479 4C84.9193 4 86.1409 4.35537 87.1127 5.06611C88.0899 5.7713 88.6369 6.71803 88.7535 7.9063H87.0793C87.0127 7.11782 86.6573 6.50147 86.0132 6.05726C85.3691 5.6075 84.5196 5.38261 83.4646 5.38261C82.2041 5.38261 81.188 5.81294 80.4162 6.67361C79.6499 7.53427 79.2667 8.74753 79.2667 10.3134C79.2667 11.8737 79.6554 13.0869 80.4328 13.9531C81.2102 14.8138 82.2263 15.2441 83.4812 15.2441C85.2414 15.2441 86.5491 14.6639 87.4042 13.5034V11.646H84.1809V10.1884H88.97V16.4185H87.829L87.4042 15.1359C86.5768 16.1298 85.2747 16.6268 83.4979 16.6268Z"/>
<path d="M94.8086 7.38157C96.0691 7.38157 97.0741 7.78414 97.8238 8.58928C98.5789 9.39441 98.9565 10.5327 98.9565 12.0042C98.9565 13.4701 98.5789 14.6084 97.8238 15.4191C97.0741 16.2242 96.0691 16.6268 94.8086 16.6268C93.5537 16.6268 92.5487 16.2242 91.7936 15.4191C91.0439 14.6084 90.6691 13.4701 90.6691 12.0042C90.6691 10.5327 91.0439 9.39441 91.7936 8.58928C92.5487 7.78414 93.5537 7.38157 94.8086 7.38157ZM94.8086 15.3941C95.5583 15.3941 96.1663 15.1109 96.6327 14.5445C97.0991 13.9726 97.3323 13.1258 97.3323 12.0042C97.3323 10.877 97.0991 10.0302 96.6327 9.46382C96.1663 8.8919 95.5583 8.60593 94.8086 8.60593C94.059 8.60593 93.451 8.8919 92.9846 9.46382C92.5182 10.0302 92.285 10.877 92.285 12.0042C92.285 13.1258 92.5182 13.9726 92.9846 14.5445C93.451 15.1109 94.059 15.3941 94.8086 15.3941Z"/>
</mask>
<path d="M23.1543 4.20822H27.7103C28.7097 4.20822 29.5454 4.30262 30.2173 4.49141C30.8947 4.67465 31.4305 5.07722 31.8248 5.69912C32.219 6.31546 32.4161 7.00677 32.4161 7.77303C32.4161 9.00573 32.0247 9.94135 31.2418 10.5799C30.4588 11.2185 29.3261 11.5377 27.8435 11.5377H24.7701V16.4185H23.1543V4.20822ZM24.7701 10.0885H27.8602C28.8985 10.0885 29.637 9.89415 30.0757 9.50547C30.5199 9.11678 30.742 8.55596 30.742 7.82301C30.742 7.33437 30.6199 6.90127 30.3755 6.52369C30.1312 6.1461 29.8203 5.90734 29.4427 5.80739C29.0707 5.70744 28.5321 5.65747 27.8269 5.65747H24.7701V10.0885Z" fill="white"/>
<path d="M39.9206 14.0947V12.1374H38.8461C36.5695 12.1374 35.4312 12.7566 35.4312 13.9948C35.4312 14.4446 35.5978 14.7916 35.931 15.0359C36.2641 15.2747 36.7139 15.3941 37.2803 15.3941C37.7967 15.3941 38.2964 15.2775 38.7795 15.0442C39.2626 14.811 39.6429 14.4945 39.9206 14.0947ZM39.9206 15.5107C39.121 16.2547 38.091 16.6268 36.8305 16.6268C35.9532 16.6268 35.2313 16.3908 34.665 15.9188C34.0986 15.4413 33.8154 14.8277 33.8154 14.0781C33.8154 12.0125 35.595 10.9797 39.1543 10.9797H39.9206C39.9206 10.3467 39.8872 9.8886 39.8206 9.60541C39.754 9.31668 39.568 9.07791 39.2626 8.88912C38.9572 8.70033 38.4713 8.60593 37.805 8.60593C36.4057 8.60593 35.6839 9.10567 35.6395 10.1052H34.0736C34.1902 8.28943 35.4618 7.38157 37.8883 7.38157C39.021 7.38157 39.9039 7.60646 40.5369 8.05622C41.1699 8.50599 41.4864 9.38886 41.4864 10.7048V16.4185H39.9206V15.5107Z" fill="white"/>
<path d="M44.3183 18.5508C45.0956 18.5508 45.7314 17.84 46.2256 16.4185L42.8857 7.58147H44.5848L46.9253 14.4945L49.2657 7.58147H50.9648L47.6249 16.4185C47.3028 17.2625 47.028 17.9122 46.8003 18.3675C46.5782 18.8284 46.2839 19.2143 45.9174 19.5252C45.5565 19.8417 45.1123 20 44.5848 20C44.1906 20 43.8519 19.9611 43.5687 19.8834V18.4341C43.813 18.5119 44.0629 18.5508 44.3183 18.5508Z" fill="white"/>
<path d="M60.793 5.65747H54.1715V9.43883H59.9102V10.8881H54.1715V16.4185H52.5557V4.20822H60.793V5.65747Z" fill="white"/>
<path d="M68.3724 14.0947V12.1374H67.298C65.0214 12.1374 63.8831 12.7566 63.8831 13.9948C63.8831 14.4446 64.0497 14.7916 64.3828 15.0359C64.716 15.2747 65.1658 15.3941 65.7321 15.3941C66.2485 15.3941 66.7483 15.2775 67.2313 15.0442C67.7144 14.811 68.0948 14.4945 68.3724 14.0947ZM68.3724 15.5107C67.5728 16.2547 66.5428 16.6268 65.2824 16.6268C64.405 16.6268 63.6832 16.3908 63.1168 15.9188C62.5504 15.4413 62.2673 14.8277 62.2673 14.0781C62.2673 12.0125 64.0469 10.9797 67.6062 10.9797H68.3724C68.3724 10.3467 68.3391 9.8886 68.2725 9.60541C68.2058 9.31668 68.0198 9.07791 67.7144 8.88912C67.409 8.70033 66.9232 8.60593 66.2569 8.60593C64.8576 8.60593 64.1357 9.10567 64.0913 10.1052H62.5255C62.6421 8.28943 63.9136 7.38157 66.3401 7.38157C67.4729 7.38157 68.3558 7.60646 68.9888 8.05622C69.6218 8.50599 69.9383 9.38886 69.9383 10.7048V16.4185H68.3724V15.5107Z" fill="white"/>
<path d="M76.8597 9.01406C76.6376 8.94742 76.3183 8.91411 75.9018 8.91411C75.1022 8.91411 74.4165 9.33333 73.8446 10.1718V16.4185H72.2704V7.58147H73.8446V8.81416C74.5053 7.8591 75.2716 7.38157 76.1434 7.38157C76.3655 7.38157 76.6042 7.40378 76.8597 7.4482V9.01406Z" fill="white"/>
<path d="M83.4979 16.6268C81.7432 16.6268 80.319 16.0521 79.2251 14.9027C78.1368 13.7533 77.5926 12.2235 77.5926 10.3134C77.5926 8.39771 78.1312 6.86795 79.2084 5.7241C80.2857 4.5747 81.6988 4 83.4479 4C84.9193 4 86.1409 4.35537 87.1127 5.06611C88.0899 5.7713 88.6369 6.71803 88.7535 7.9063H87.0793C87.0127 7.11782 86.6573 6.50147 86.0132 6.05726C85.3691 5.6075 84.5196 5.38261 83.4646 5.38261C82.2041 5.38261 81.188 5.81294 80.4162 6.67361C79.6499 7.53427 79.2667 8.74753 79.2667 10.3134C79.2667 11.8737 79.6554 13.0869 80.4328 13.9531C81.2102 14.8138 82.2263 15.2441 83.4812 15.2441C85.2414 15.2441 86.5491 14.6639 87.4042 13.5034V11.646H84.1809V10.1884H88.97V16.4185H87.829L87.4042 15.1359C86.5768 16.1298 85.2747 16.6268 83.4979 16.6268Z" fill="white"/>
<path d="M94.8086 7.38157C96.0691 7.38157 97.0741 7.78414 97.8238 8.58928C98.5789 9.39441 98.9565 10.5327 98.9565 12.0042C98.9565 13.4701 98.5789 14.6084 97.8238 15.4191C97.0741 16.2242 96.0691 16.6268 94.8086 16.6268C93.5537 16.6268 92.5487 16.2242 91.7936 15.4191C91.0439 14.6084 90.6691 13.4701 90.6691 12.0042C90.6691 10.5327 91.0439 9.39441 91.7936 8.58928C92.5487 7.78414 93.5537 7.38157 94.8086 7.38157ZM94.8086 15.3941C95.5583 15.3941 96.1663 15.1109 96.6327 14.5445C97.0991 13.9726 97.3323 13.1258 97.3323 12.0042C97.3323 10.877 97.0991 10.0302 96.6327 9.46382C96.1663 8.8919 95.5583 8.60593 94.8086 8.60593C94.059 8.60593 93.451 8.8919 92.9846 9.46382C92.5182 10.0302 92.285 10.877 92.285 12.0042C92.285 13.1258 92.5182 13.9726 92.9846 14.5445C93.451 15.1109 94.059 15.3941 94.8086 15.3941Z" fill="white"/>
<path d="M23.1543 4.20822H27.7103C28.7097 4.20822 29.5454 4.30262 30.2173 4.49141C30.8947 4.67465 31.4305 5.07722 31.8248 5.69912C32.219 6.31546 32.4161 7.00677 32.4161 7.77303C32.4161 9.00573 32.0247 9.94135 31.2418 10.5799C30.4588 11.2185 29.3261 11.5377 27.8435 11.5377H24.7701V16.4185H23.1543V4.20822ZM24.7701 10.0885H27.8602C28.8985 10.0885 29.637 9.89415 30.0757 9.50547C30.5199 9.11678 30.742 8.55596 30.742 7.82301C30.742 7.33437 30.6199 6.90127 30.3755 6.52369C30.1312 6.1461 29.8203 5.90734 29.4427 5.80739C29.0707 5.70744 28.5321 5.65747 27.8269 5.65747H24.7701V10.0885Z" stroke="white" stroke-width="0.6" mask="url(#path-2-outside-1_158_20602)"/>
<path d="M39.9206 14.0947V12.1374H38.8461C36.5695 12.1374 35.4312 12.7566 35.4312 13.9948C35.4312 14.4446 35.5978 14.7916 35.931 15.0359C36.2641 15.2747 36.7139 15.3941 37.2803 15.3941C37.7967 15.3941 38.2964 15.2775 38.7795 15.0442C39.2626 14.811 39.6429 14.4945 39.9206 14.0947ZM39.9206 15.5107C39.121 16.2547 38.091 16.6268 36.8305 16.6268C35.9532 16.6268 35.2313 16.3908 34.665 15.9188C34.0986 15.4413 33.8154 14.8277 33.8154 14.0781C33.8154 12.0125 35.595 10.9797 39.1543 10.9797H39.9206C39.9206 10.3467 39.8872 9.8886 39.8206 9.60541C39.754 9.31668 39.568 9.07791 39.2626 8.88912C38.9572 8.70033 38.4713 8.60593 37.805 8.60593C36.4057 8.60593 35.6839 9.10567 35.6395 10.1052H34.0736C34.1902 8.28943 35.4618 7.38157 37.8883 7.38157C39.021 7.38157 39.9039 7.60646 40.5369 8.05622C41.1699 8.50599 41.4864 9.38886 41.4864 10.7048V16.4185H39.9206V15.5107Z" stroke="white" stroke-width="0.6" mask="url(#path-2-outside-1_158_20602)"/>
<path d="M44.3183 18.5508C45.0956 18.5508 45.7314 17.84 46.2256 16.4185L42.8857 7.58147H44.5848L46.9253 14.4945L49.2657 7.58147H50.9648L47.6249 16.4185C47.3028 17.2625 47.028 17.9122 46.8003 18.3675C46.5782 18.8284 46.2839 19.2143 45.9174 19.5252C45.5565 19.8417 45.1123 20 44.5848 20C44.1906 20 43.8519 19.9611 43.5687 19.8834V18.4341C43.813 18.5119 44.0629 18.5508 44.3183 18.5508Z" stroke="white" stroke-width="0.6" mask="url(#path-2-outside-1_158_20602)"/>
<path d="M60.793 5.65747H54.1715V9.43883H59.9102V10.8881H54.1715V16.4185H52.5557V4.20822H60.793V5.65747Z" stroke="white" stroke-width="0.6" mask="url(#path-2-outside-1_158_20602)"/>
<path d="M68.3724 14.0947V12.1374H67.298C65.0214 12.1374 63.8831 12.7566 63.8831 13.9948C63.8831 14.4446 64.0497 14.7916 64.3828 15.0359C64.716 15.2747 65.1658 15.3941 65.7321 15.3941C66.2485 15.3941 66.7483 15.2775 67.2313 15.0442C67.7144 14.811 68.0948 14.4945 68.3724 14.0947ZM68.3724 15.5107C67.5728 16.2547 66.5428 16.6268 65.2824 16.6268C64.405 16.6268 63.6832 16.3908 63.1168 15.9188C62.5504 15.4413 62.2673 14.8277 62.2673 14.0781C62.2673 12.0125 64.0469 10.9797 67.6062 10.9797H68.3724C68.3724 10.3467 68.3391 9.8886 68.2725 9.60541C68.2058 9.31668 68.0198 9.07791 67.7144 8.88912C67.409 8.70033 66.9232 8.60593 66.2569 8.60593C64.8576 8.60593 64.1357 9.10567 64.0913 10.1052H62.5255C62.6421 8.28943 63.9136 7.38157 66.3401 7.38157C67.4729 7.38157 68.3558 7.60646 68.9888 8.05622C69.6218 8.50599 69.9383 9.38886 69.9383 10.7048V16.4185H68.3724V15.5107Z" stroke="white" stroke-width="0.6" mask="url(#path-2-outside-1_158_20602)"/>
<path d="M76.8597 9.01406C76.6376 8.94742 76.3183 8.91411 75.9018 8.91411C75.1022 8.91411 74.4165 9.33333 73.8446 10.1718V16.4185H72.2704V7.58147H73.8446V8.81416C74.5053 7.8591 75.2716 7.38157 76.1434 7.38157C76.3655 7.38157 76.6042 7.40378 76.8597 7.4482V9.01406Z" stroke="white" stroke-width="0.6" mask="url(#path-2-outside-1_158_20602)"/>
<path d="M83.4979 16.6268C81.7432 16.6268 80.319 16.0521 79.2251 14.9027C78.1368 13.7533 77.5926 12.2235 77.5926 10.3134C77.5926 8.39771 78.1312 6.86795 79.2084 5.7241C80.2857 4.5747 81.6988 4 83.4479 4C84.9193 4 86.1409 4.35537 87.1127 5.06611C88.0899 5.7713 88.6369 6.71803 88.7535 7.9063H87.0793C87.0127 7.11782 86.6573 6.50147 86.0132 6.05726C85.3691 5.6075 84.5196 5.38261 83.4646 5.38261C82.2041 5.38261 81.188 5.81294 80.4162 6.67361C79.6499 7.53427 79.2667 8.74753 79.2667 10.3134C79.2667 11.8737 79.6554 13.0869 80.4328 13.9531C81.2102 14.8138 82.2263 15.2441 83.4812 15.2441C85.2414 15.2441 86.5491 14.6639 87.4042 13.5034V11.646H84.1809V10.1884H88.97V16.4185H87.829L87.4042 15.1359C86.5768 16.1298 85.2747 16.6268 83.4979 16.6268Z" stroke="white" stroke-width="0.6" mask="url(#path-2-outside-1_158_20602)"/>
<path d="M94.8086 7.38157C96.0691 7.38157 97.0741 7.78414 97.8238 8.58928C98.5789 9.39441 98.9565 10.5327 98.9565 12.0042C98.9565 13.4701 98.5789 14.6084 97.8238 15.4191C97.0741 16.2242 96.0691 16.6268 94.8086 16.6268C93.5537 16.6268 92.5487 16.2242 91.7936 15.4191C91.0439 14.6084 90.6691 13.4701 90.6691 12.0042C90.6691 10.5327 91.0439 9.39441 91.7936 8.58928C92.5487 7.78414 93.5537 7.38157 94.8086 7.38157ZM94.8086 15.3941C95.5583 15.3941 96.1663 15.1109 96.6327 14.5445C97.0991 13.9726 97.3323 13.1258 97.3323 12.0042C97.3323 10.877 97.0991 10.0302 96.6327 9.46382C96.1663 8.8919 95.5583 8.60593 94.8086 8.60593C94.059 8.60593 93.451 8.8919 92.9846 9.46382C92.5182 10.0302 92.285 10.877 92.285 12.0042C92.285 13.1258 92.5182 13.9726 92.9846 14.5445C93.451 15.1109 94.059 15.3941 94.8086 15.3941Z" stroke="white" stroke-width="0.6" mask="url(#path-2-outside-1_158_20602)"/>
</svg>
